# xmcd
#
# Track frame offsets: 
#        150
#        16946
#        32702
#        48972
#        63007
#        80849
#        102010
#        118278
#        131101
#        146999
#        164846
#        180965
#        197615
#        212759
#        227940
#        255713
#
# Disc length: 3507 seconds
#
# Revision: 0
# Processed by: cddbd v1.5.2PL0 Copyright (c) Steve Scherf et al.
# Submitted via: ExactAudioCopy v0.99pb5
#
DISCID=e70db110
DTITLE=Фактор 2 - Звезды падают
DYEAR=2007
DGENRE=Pop
TTITLE0=Звезды падают
TTITLE1=Антидурь
TTITLE2=Бедный человек
TTITLE3=Я не гей
TTITLE4=Шалава
TTITLE5=Красавица
TTITLE6=Преступление
TTITLE7=Одинокая звезда
TTITLE8=Война
TTITLE9=Твой
TTITLE10=Весна
TTITLE11=Отчим
TTITLE12=Эй, девченки
TTITLE13=Подними же трубку
TTITLE14=Родной город
TTITLE15=555
EXTD=
EXTT0=
EXTT1=
EXTT2=
EXTT3=
EXTT4=
EXTT5=
EXTT6=
EXTT7=
EXTT8=
EXTT9=
EXTT10=
EXTT11=
EXTT12=
EXTT13=
EXTT14=
EXTT15=
PLAYORDER=
